<svg data-v-c3ad5561="" data-v-3217d8a7="" xmlns="http://www.w3.org/2000/svg"
    xmlns:xlink="http://www.w3.org/1999/xlink" aria-hidden="true" role="img" class="icon text-[8em]"
    width="1em" height="1em" viewBox="0 0 24 24">
    <path fill="#E3E730"
        d="M6 11a1 1 0 1 0 1 1a1 1 0 0 0-1-1Zm12 0a1 1 0 1 0 1 1a1 1 0 0 0-1-1Zm2-6H4a3 3 0 0 0-3 3v8a3 3 0 0 0 3 3h16a3 3 0 0 0 3-3V8a3 3 0 0 0-3-3Zm1 11a1 1 0 0 1-1 1H4a1 1 0 0 1-1-1V8a1 1 0 0 1 1-1h16a1 1 0 0 1 1 1Zm-9-7a3 3 0 1 0 3 3a3 3 0 0 0-3-3Zm0 4a1 1 0 1 1 1-1a1 1 0 0 1-1 1Z"></path>
</svg>