<svg data-v-c3ad5561="" data-v-3217d8a7="" xmlns="http://www.w3.org/2000/svg"
    xmlns:xlink="http://www.w3.org/1999/xlink" aria-hidden="true" role="img" class="icon text-[8em]"
    width="1em" height="1em" viewBox="0 0 24 24">
    <path fill="#E3E730"
        d="M9 10a1 1 0 0 0-1 1v2a1 1 0 0 0 2 0v-2a1 1 0 0 0-1-1Zm12 1a1 1 0 0 0 1-1V6a1 1 0 0 0-1-1H3a1 1 0 0 0-1 1v4a1 1 0 0 0 1 1a1 1 0 0 1 0 2a1 1 0 0 0-1 1v4a1 1 0 0 0 1 1h18a1 1 0 0 0 1-1v-4a1 1 0 0 0-1-1a1 1 0 0 1 0-2Zm-1-1.82a3 3 0 0 0 0 5.64V17H10a1 1 0 0 0-2 0H4v-2.18a3 3 0 0 0 0-5.64V7h4a1 1 0 0 0 2 0h10Z"></path>
</svg>